<svg width="233" height="387" viewBox="0 0 233 387" fill="none" xmlns="http://www.w3.org/2000/svg">
<rect width="232.2" height="387" rx="20" fill="white"/>
<rect x="12.723" y="13.4969" width="206.367" height="359.619" rx="8.5" stroke="black" stroke-width="3"/>
<rect x="22.5" y="24.5" width="187" height="118" rx="8.5" fill="#EF476F" stroke="black" stroke-width="3"/>
<path d="M67.9434 92.168C66.7114 92.168 65.6074 91.968 64.6314 91.568C63.6554 91.168 62.8714 90.576 62.2794 89.792C61.7034 89.008 61.3994 88.064 61.3674 86.96H65.7354C65.7994 87.584 66.0154 88.064 66.3834 88.4C66.7514 88.72 67.2314 88.88 67.8234 88.88C68.4314 88.88 68.9114 88.744 69.2634 88.472C69.6154 88.184 69.7914 87.792 69.7914 87.296C69.7914 86.88 69.6474 86.536 69.3594 86.264C69.0874 85.992 68.7434 85.768 68.3274 85.592C67.9274 85.416 67.3514 85.216 66.5994 84.992C65.5114 84.656 64.6234 84.32 63.9354 83.984C63.2474 83.648 62.6554 83.152 62.1594 82.496C61.6634 81.84 61.4154 80.984 61.4154 79.928C61.4154 78.36 61.9834 77.136 63.1194 76.256C64.2554 75.36 65.7354 74.912 67.5594 74.912C69.4154 74.912 70.9114 75.36 72.0474 76.256C73.1834 77.136 73.7914 78.368 73.8714 79.952H69.4314C69.3994 79.408 69.1994 78.984 68.8314 78.68C68.4634 78.36 67.9914 78.2 67.4154 78.2C66.9194 78.2 66.5194 78.336 66.2154 78.608C65.9114 78.864 65.7594 79.24 65.7594 79.736C65.7594 80.28 66.0154 80.704 66.5274 81.008C67.0394 81.312 67.8394 81.64 68.9274 81.992C70.0154 82.36 70.8954 82.712 71.5674 83.048C72.2554 83.384 72.8474 83.872 73.3434 84.512C73.8394 85.152 74.0874 85.976 74.0874 86.984C74.0874 87.944 73.8394 88.816 73.3434 89.6C72.8634 90.384 72.1594 91.008 71.2314 91.472C70.3034 91.936 69.2074 92.168 67.9434 92.168ZM75.797 85.28C75.797 83.904 76.053 82.696 76.565 81.656C77.093 80.616 77.805 79.816 78.701 79.256C79.597 78.696 80.597 78.416 81.701 78.416C82.645 78.416 83.469 78.608 84.173 78.992C84.893 79.376 85.445 79.88 85.829 80.504V78.608H89.933V92H85.829V90.104C85.429 90.728 84.869 91.232 84.149 91.616C83.445 92 82.621 92.192 81.677 92.192C80.589 92.192 79.597 91.912 78.701 91.352C77.805 90.776 77.093 89.968 76.565 88.928C76.053 87.872 75.797 86.656 75.797 85.28ZM85.829 85.304C85.829 84.28 85.541 83.472 84.965 82.88C84.405 82.288 83.717 81.992 82.901 81.992C82.085 81.992 81.389 82.288 80.813 82.88C80.253 83.456 79.973 84.256 79.973 85.28C79.973 86.304 80.253 87.12 80.813 87.728C81.389 88.32 82.085 88.616 82.901 88.616C83.717 88.616 84.405 88.32 84.965 87.728C85.541 87.136 85.829 86.328 85.829 85.304ZM97.0061 74.24V92H92.9021V74.24H97.0061ZM106.004 88.16L108.908 78.608H113.276L108.524 92H103.46L98.7082 78.608H103.1L106.004 88.16ZM114.188 85.28C114.188 83.904 114.444 82.696 114.956 81.656C115.484 80.616 116.196 79.816 117.092 79.256C117.988 78.696 118.988 78.416 120.092 78.416C121.036 78.416 121.86 78.608 122.564 78.992C123.284 79.376 123.836 79.88 124.22 80.504V78.608H128.324V92H124.22V90.104C123.82 90.728 123.26 91.232 122.54 91.616C121.836 92 121.012 92.192 120.068 92.192C118.98 92.192 117.988 91.912 117.092 91.352C116.196 90.776 115.484 89.968 114.956 88.928C114.444 87.872 114.188 86.656 114.188 85.28ZM124.22 85.304C124.22 84.28 123.932 83.472 123.356 82.88C122.796 82.288 122.108 81.992 121.292 81.992C120.476 81.992 119.78 82.288 119.204 82.88C118.644 83.456 118.364 84.256 118.364 85.28C118.364 86.304 118.644 87.12 119.204 87.728C119.78 88.32 120.476 88.616 121.292 88.616C122.108 88.616 122.796 88.32 123.356 87.728C123.932 87.136 124.22 86.328 124.22 85.304ZM130.477 85.28C130.477 83.904 130.733 82.696 131.245 81.656C131.773 80.616 132.485 79.816 133.381 79.256C134.277 78.696 135.277 78.416 136.381 78.416C137.261 78.416 138.061 78.6 138.781 78.968C139.517 79.336 140.093 79.832 140.509 80.456V74.24H144.613V92H140.509V90.08C140.125 90.72 139.573 91.232 138.853 91.616C138.149 92 137.325 92.192 136.381 92.192C135.277 92.192 134.277 91.912 133.381 91.352C132.485 90.776 131.773 89.968 131.245 88.928C130.733 87.872 130.477 86.656 130.477 85.28ZM140.509 85.304C140.509 84.28 140.221 83.472 139.645 82.88C139.085 82.288 138.397 81.992 137.581 81.992C136.765 81.992 136.069 82.288 135.493 82.88C134.933 83.456 134.653 84.256 134.653 85.28C134.653 86.304 134.933 87.12 135.493 87.728C136.069 88.32 136.765 88.616 137.581 88.616C138.397 88.616 139.085 88.32 139.645 87.728C140.221 87.136 140.509 86.328 140.509 85.304ZM153.678 92.192C152.366 92.192 151.182 91.912 150.126 91.352C149.086 90.792 148.262 89.992 147.654 88.952C147.062 87.912 146.766 86.696 146.766 85.304C146.766 83.928 147.07 82.72 147.678 81.68C148.286 80.624 149.118 79.816 150.174 79.256C151.23 78.696 152.414 78.416 153.726 78.416C155.038 78.416 156.222 78.696 157.278 79.256C158.334 79.816 159.166 80.624 159.774 81.68C160.382 82.72 160.686 83.928 160.686 85.304C160.686 86.68 160.374 87.896 159.75 88.952C159.142 89.992 158.302 90.792 157.23 91.352C156.174 91.912 154.99 92.192 153.678 92.192ZM153.678 88.64C154.462 88.64 155.126 88.352 155.67 87.776C156.23 87.2 156.51 86.376 156.51 85.304C156.51 84.232 156.238 83.408 155.694 82.832C155.166 82.256 154.51 81.968 153.726 81.968C152.926 81.968 152.262 82.256 151.734 82.832C151.206 83.392 150.942 84.216 150.942 85.304C150.942 86.376 151.198 87.2 151.71 87.776C152.238 88.352 152.894 88.64 153.678 88.64ZM166.967 80.84C167.447 80.104 168.047 79.528 168.767 79.112C169.487 78.68 170.287 78.464 171.167 78.464V82.808H170.039C169.015 82.808 168.247 83.032 167.735 83.48C167.223 83.912 166.967 84.68 166.967 85.784V92H162.863V78.608H166.967V80.84Z" fill="black"/>
<circle cx="44.4374" cy="45.2114" r="28.2314" fill="white" stroke="black" stroke-width="3"/>
<path d="M32.4897 48.584C32.4897 49.464 32.2577 50.28 31.7937 51.032C31.3457 51.768 30.6737 52.376 29.7777 52.856C28.8977 53.32 27.8497 53.576 26.6337 53.624V55.568H25.0977V53.6C23.4017 53.456 22.0337 52.952 20.9937 52.088C19.9537 51.208 19.4017 50.016 19.3377 48.512H23.7057C23.8017 49.472 24.2657 50.088 25.0977 50.36V46.568C23.8497 46.248 22.8497 45.936 22.0977 45.632C21.3617 45.328 20.7137 44.84 20.1537 44.168C19.5937 43.496 19.3137 42.576 19.3137 41.408C19.3137 39.952 19.8497 38.784 20.9217 37.904C22.0097 37.024 23.4017 36.528 25.0977 36.416V34.472H26.6337V36.416C28.3137 36.544 29.6417 37.032 30.6177 37.88C31.5937 38.728 32.1377 39.904 32.2497 41.408H27.8577C27.7617 40.544 27.3537 39.984 26.6337 39.728V43.448C27.9617 43.816 28.9857 44.144 29.7057 44.432C30.4257 44.72 31.0657 45.2 31.6257 45.872C32.2017 46.528 32.4897 47.432 32.4897 48.584ZM23.6577 41.216C23.6577 41.616 23.7777 41.952 24.0177 42.224C24.2737 42.496 24.6337 42.736 25.0977 42.944V39.608C24.6497 39.688 24.2977 39.864 24.0417 40.136C23.7857 40.392 23.6577 40.752 23.6577 41.216ZM26.6337 50.432C27.1137 50.352 27.4897 50.16 27.7617 49.856C28.0497 49.552 28.1937 49.176 28.1937 48.728C28.1937 48.312 28.0577 47.976 27.7857 47.72C27.5297 47.448 27.1457 47.216 26.6337 47.024V50.432ZM35.2786 40.904C35.3426 39.192 35.9026 37.872 36.9586 36.944C38.0146 36.016 39.4466 35.552 41.2546 35.552C42.4546 35.552 43.4786 35.76 44.3266 36.176C45.1906 36.592 45.8386 37.16 46.2706 37.88C46.7186 38.6 46.9426 39.408 46.9426 40.304C46.9426 41.36 46.6786 42.224 46.1506 42.896C45.6226 43.552 45.0066 44 44.3026 44.24V44.336C45.2146 44.64 45.9346 45.144 46.4626 45.848C46.9906 46.552 47.2546 47.456 47.2546 48.56C47.2546 49.552 47.0226 50.432 46.5586 51.2C46.1106 51.952 45.4466 52.544 44.5666 52.976C43.7026 53.408 42.6706 53.624 41.4706 53.624C39.5506 53.624 38.0146 53.152 36.8626 52.208C35.7266 51.264 35.1266 49.84 35.0626 47.936H39.0466C39.0626 48.64 39.2626 49.2 39.6466 49.616C40.0306 50.016 40.5906 50.216 41.3266 50.216C41.9506 50.216 42.4306 50.04 42.7666 49.688C43.1186 49.32 43.2946 48.84 43.2946 48.248C43.2946 47.48 43.0466 46.928 42.5506 46.592C42.0706 46.24 41.2946 46.064 40.2226 46.064H39.4546V42.728H40.2226C41.0386 42.728 41.6946 42.592 42.1906 42.32C42.7026 42.032 42.9586 41.528 42.9586 40.808C42.9586 40.232 42.7986 39.784 42.4786 39.464C42.1586 39.144 41.7186 38.984 41.1586 38.984C40.5506 38.984 40.0946 39.168 39.7906 39.536C39.5026 39.904 39.3346 40.36 39.2866 40.904H35.2786ZM69.1539 36.632V53.48H65.0499V43.376L61.2819 53.48H57.9699L54.1779 43.352V53.48H50.0739V36.632H54.9219L59.6499 48.296L64.3299 36.632H69.1539Z" fill="black"/>
<rect x="59.6054" y="282.618" width="26.9522" height="46.9204" rx="3.5" transform="rotate(47.7326 59.6054 282.618)" fill="white" stroke="black" stroke-width="3"/>
<rect x="59.6054" y="282.618" width="27.0302" height="10.2601" rx="3.5" transform="rotate(47.7326 59.6054 282.618)" fill="#EF476F" stroke="black" stroke-width="3"/>
<path d="M33.2684 313.309C37.13 313.918 40.2192 314.337 42.5358 314.567C44.8702 314.78 47.0634 314.749 49.1154 314.473C51.2012 314.199 52.8569 313.505 54.0824 312.391C55.2368 311.342 55.8843 310.234 56.0249 309.069C56.1993 307.905 55.7216 306.701 54.5917 305.458C53.494 304.25 52.2566 303.656 50.8795 303.675C49.5363 303.696 48.21 304.253 46.9006 305.346L44.7698 303.001C46.8236 301.264 48.9087 300.472 51.0251 300.624C53.1416 300.776 55.015 301.749 56.6454 303.543C58.308 305.372 59.1175 307.279 59.0737 309.265C59.046 311.269 58.1441 313.077 56.3681 314.692C54.894 316.031 53.0519 316.895 50.8417 317.282C48.6654 317.671 46.536 317.79 44.4534 317.64C42.3886 317.473 39.8637 317.157 36.8787 316.692L45.2081 325.857L43.1834 327.697L31.5368 314.883L33.2684 313.309Z" fill="black"/>
<path d="M33.2684 313.309L33.7358 310.345L32.315 310.121L31.2506 311.089L33.2684 313.309ZM42.5358 314.567L42.2401 317.552L42.2514 317.553L42.2628 317.554L42.5358 314.567ZM49.1154 314.473L48.7243 311.499L48.7157 311.5L49.1154 314.473ZM56.0249 309.069L53.058 308.624L53.0516 308.667L53.0464 308.709L56.0249 309.069ZM50.8795 303.675L50.8376 300.675L50.833 300.675L50.8795 303.675ZM46.9006 305.346L44.6806 307.363L46.6149 309.492L48.8229 307.649L46.9006 305.346ZM44.7698 303.001L42.8326 300.711L40.4587 302.718L42.5498 305.019L44.7698 303.001ZM51.0251 300.624L50.8103 303.616L50.8103 303.616L51.0251 300.624ZM59.0737 309.265L56.0744 309.199L56.0741 309.211L56.0739 309.224L59.0737 309.265ZM50.8417 317.282L50.324 314.327L50.314 314.329L50.8417 317.282ZM44.4534 317.64L44.2123 320.63L44.2248 320.631L44.2374 320.632L44.4534 317.64ZM36.8787 316.692L37.3407 313.728L28.9405 312.419L34.6586 318.71L36.8787 316.692ZM45.2081 325.857L47.2258 328.077L49.4459 326.059L47.4281 323.839L45.2081 325.857ZM43.1834 327.697L40.9633 329.715L42.9811 331.935L45.2012 329.917L43.1834 327.697ZM31.5368 314.883L29.519 312.663L27.299 314.68L29.3167 316.9L31.5368 314.883ZM32.801 316.272C36.6871 316.885 39.8406 317.314 42.2401 317.552L42.8316 311.581C40.5978 311.36 37.573 310.951 33.7358 310.345L32.801 316.272ZM42.2628 317.554C44.7923 317.785 47.2131 317.756 49.5151 317.446L48.7157 311.5C46.9138 311.742 44.9481 311.775 42.8089 311.579L42.2628 317.554ZM49.5064 317.447C52.0346 317.115 54.3133 316.235 56.1001 314.611L52.0646 310.171C51.4005 310.774 50.3678 311.282 48.7243 311.499L49.5064 317.447ZM56.1001 314.611C57.6103 313.238 58.7515 311.516 59.0033 309.428L53.0464 308.709C53.0171 308.953 52.8632 309.445 52.0646 310.171L56.1001 314.611ZM58.9917 309.513C59.3497 307.125 58.278 305.053 56.8117 303.44L52.3716 307.476C52.7624 307.906 52.9363 308.216 53.009 308.4C53.0726 308.56 53.059 308.617 53.058 308.624L58.9917 309.513ZM56.8117 303.44C55.253 301.725 53.2348 300.642 50.8376 300.675L50.9214 306.675C51.2784 306.67 51.735 306.775 52.3716 307.476L56.8117 303.44ZM50.833 300.675C48.6357 300.71 46.67 301.631 44.9783 303.042L48.8229 307.649C49.75 306.875 50.4369 306.682 50.926 306.675L50.833 300.675ZM49.1206 303.328L46.9899 300.983L42.5498 305.019L44.6806 307.363L49.1206 303.328ZM46.7071 305.292C48.3303 303.919 49.6699 303.534 50.8103 303.616L51.24 297.632C48.1474 297.41 45.3168 298.61 42.8326 300.711L46.7071 305.292ZM50.8103 303.616C52.0475 303.705 53.2338 304.249 54.4254 305.56L58.8654 301.525C56.7963 299.248 54.2357 297.847 51.24 297.632L50.8103 303.616ZM54.4254 305.56C55.7035 306.967 56.0973 308.159 56.0744 309.199L62.0729 309.331C62.1376 306.4 60.9126 303.777 58.8654 301.525L54.4254 305.56ZM56.0739 309.224C56.06 310.234 55.6431 311.297 54.3503 312.472L58.3859 316.912C60.6451 314.858 62.032 312.303 62.0734 309.307L56.0739 309.224ZM54.3503 312.472C53.3481 313.383 52.0474 314.025 50.324 314.327L51.3594 320.237C54.0563 319.765 56.4399 318.68 58.3859 316.912L54.3503 312.472ZM50.314 314.329C48.3687 314.677 46.4893 314.779 44.6695 314.648L44.2374 320.632C46.5827 320.801 48.9621 320.666 51.3693 320.235L50.314 314.329ZM44.6946 314.65C42.7287 314.491 40.2823 314.187 37.3407 313.728L36.4166 319.656C39.445 320.128 42.0485 320.456 44.2123 320.63L44.6946 314.65ZM34.6586 318.71L42.988 327.874L47.4281 323.839L39.0987 314.674L34.6586 318.71ZM43.1903 323.637L41.1656 325.477L45.2012 329.917L47.2258 328.077L43.1903 323.637ZM45.4034 325.679L33.7568 312.865L29.3167 316.9L40.9633 329.715L45.4034 325.679ZM33.5546 317.103L35.2862 315.529L31.2506 311.089L29.519 312.663L33.5546 317.103Z" fill="black"/>
<rect x="41.8258" y="278.543" width="26.9522" height="46.9204" rx="3.5" transform="rotate(21.3961 41.8258 278.543)" fill="white" stroke="black" stroke-width="3"/>
<rect x="41.8258" y="278.543" width="27.0302" height="10.2601" rx="3.5" transform="rotate(21.3961 41.8258 278.543)" fill="#EF476F" stroke="black" stroke-width="3"/>
<path d="M31.8382 317.732C35.5692 316.565 38.5237 315.57 40.7017 314.748C42.8885 313.904 44.8402 312.903 46.5568 311.745C48.3045 310.574 49.4804 309.218 50.0845 307.676C50.6536 306.223 50.7426 304.944 50.3515 303.837C49.9915 302.716 49.0294 301.849 47.4652 301.236C45.9456 300.641 44.5731 300.657 43.3474 301.286C42.1529 301.9 41.2113 302.988 40.5226 304.548L37.5729 303.392C38.6429 300.924 40.1601 299.289 42.1243 298.486C44.0885 297.684 46.1991 297.724 48.456 298.609C50.7577 299.511 52.3293 300.861 53.171 302.66C54.0351 304.468 54.0293 306.489 53.1537 308.724C52.427 310.578 51.1592 312.17 49.3502 313.497C47.5723 314.811 45.7168 315.863 43.7837 316.652C41.8593 317.419 39.4563 318.256 36.5748 319.163L48.1053 323.681L47.1071 326.228L30.9845 319.911L31.8382 317.732Z" fill="black"/>
<path d="M31.8382 317.732L30.9424 314.869L29.5697 315.299L29.045 316.638L31.8382 317.732ZM40.7017 314.748L41.7611 317.555L41.7718 317.551L41.7824 317.547L40.7017 314.748ZM46.5568 311.745L44.8867 309.253L44.8795 309.258L46.5568 311.745ZM50.3515 303.837L47.4953 304.754L47.5085 304.795L47.5229 304.836L50.3515 303.837ZM43.3474 301.286L41.9791 298.616L41.9749 298.618L43.3474 301.286ZM40.5226 304.548L39.4282 307.341L42.1059 308.39L43.2672 305.759L40.5226 304.548ZM37.5729 303.392L34.8205 302.199L33.5837 305.051L36.4785 306.185L37.5729 303.392ZM42.1243 298.486L43.2592 301.263L43.2592 301.263L42.1243 298.486ZM53.171 302.66L50.4537 303.931L50.459 303.943L50.4643 303.954L53.171 302.66ZM49.3502 313.497L47.5753 311.078L47.5671 311.084L49.3502 313.497ZM43.7837 316.652L44.8942 319.439L44.9059 319.434L44.9175 319.429L43.7837 316.652ZM36.5748 319.163L35.6738 316.301L27.5646 318.855L35.4803 321.956L36.5748 319.163ZM48.1053 323.681L50.8985 324.775L51.9929 321.982L49.1997 320.888L48.1053 323.681ZM47.1071 326.228L46.0127 329.021L48.8059 330.116L49.9004 327.323L47.1071 326.228ZM30.9845 319.911L28.1913 318.817L27.0969 321.61L29.8901 322.704L30.9845 319.911ZM32.734 320.595C36.4886 319.421 39.5052 318.406 41.7611 317.555L39.6423 311.941C37.5422 312.734 34.6498 313.709 30.9424 314.869L32.734 320.595ZM41.7824 317.547C44.152 316.632 46.3083 315.531 48.234 314.233L44.8795 309.258C43.3721 310.274 41.625 311.176 39.621 311.95L41.7824 317.547ZM48.2268 314.237C50.3451 312.818 51.9969 311.018 52.8778 308.77L47.2913 306.581C46.9639 307.417 46.2638 308.33 44.8868 309.253L48.2268 314.237ZM52.8778 308.77C53.6223 306.87 53.8807 304.82 53.1801 302.837L47.5229 304.836C47.6045 305.067 47.685 305.576 47.2913 306.581L52.8778 308.77ZM53.2077 302.919C52.4691 300.62 50.5894 299.238 48.5596 298.443L46.3707 304.03C46.9117 304.242 47.2055 304.443 47.352 304.575C47.48 304.69 47.4932 304.748 47.4953 304.754L53.2077 302.919ZM48.5596 298.443C46.4018 297.598 44.1126 297.522 41.9791 298.616L44.7157 303.955C45.0335 303.792 45.4895 303.684 46.3707 304.03L48.5596 298.443ZM41.9749 298.618C40.0209 299.623 38.6678 301.321 37.7781 303.336L43.2672 305.759C43.7548 304.654 44.2849 304.177 44.7199 303.953L41.9749 298.618ZM41.617 301.755L38.6674 300.599L36.4785 306.185L39.4282 307.341L41.617 301.755ZM40.3253 304.586C41.171 302.635 42.2009 301.696 43.2592 301.263L40.9894 295.709C38.1192 296.882 36.1149 299.214 34.8205 302.199L40.3253 304.586ZM43.2592 301.263C44.4075 300.794 45.7121 300.756 47.3616 301.402L49.5505 295.816C46.6861 294.693 43.7695 294.573 40.9894 295.709L43.2592 301.263ZM47.3616 301.402C49.131 302.095 50.0129 302.989 50.4537 303.931L55.8883 301.389C54.6457 298.733 52.3843 296.926 49.5505 295.816L47.3616 301.402ZM50.4643 303.954C50.8999 304.865 50.9978 306.003 50.3605 307.629L55.947 309.818C57.0608 306.976 57.1702 304.071 55.8778 301.366L50.4643 303.954ZM50.3605 307.629C49.8664 308.89 48.9859 310.043 47.5753 311.078L51.1251 315.916C53.3325 314.296 54.9877 312.267 55.947 309.818L50.3605 307.629ZM47.5671 311.084C45.9779 312.259 44.3391 313.185 42.6499 313.874L44.9175 319.429C47.0945 318.541 49.1667 317.363 51.1333 315.91L47.5671 311.084ZM42.6732 313.865C40.841 314.595 38.5135 315.407 35.6738 316.301L37.4757 322.024C40.3992 321.104 42.8776 320.242 44.8942 319.439L42.6732 313.865ZM35.4803 321.956L47.0108 326.474L49.1997 320.888L37.6692 316.37L35.4803 321.956ZM45.312 322.586L44.3139 325.134L49.9004 327.323L50.8985 324.775L45.312 322.586ZM48.2016 323.435L32.079 317.118L29.8901 322.704L46.0127 329.021L48.2016 323.435ZM33.7778 321.006L34.6314 318.827L29.045 316.638L28.1913 318.817L33.7778 321.006Z" fill="black"/>
<rect x="24.2647" y="281.999" width="26.9522" height="46.9204" rx="3.5" fill="white" stroke="black" stroke-width="3"/>
<rect x="24.2647" y="281.999" width="27.0302" height="10.2601" rx="3.5" fill="#EF476F" stroke="black" stroke-width="3"/>
<path d="M31.7382 308.183C31.8022 306.471 32.3622 305.151 33.4182 304.223C34.4742 303.295 35.9062 302.831 37.7142 302.831C38.9142 302.831 39.9382 303.039 40.7862 303.455C41.6502 303.871 42.2982 304.439 42.7302 305.159C43.1782 305.879 43.4022 306.687 43.4022 307.583C43.4022 308.639 43.1382 309.503 42.6102 310.175C42.0822 310.831 41.4662 311.279 40.7622 311.519V311.615C41.6742 311.919 42.3942 312.423 42.9222 313.127C43.4502 313.831 43.7142 314.735 43.7142 315.839C43.7142 316.831 43.4822 317.711 43.0182 318.479C42.5702 319.231 41.9062 319.823 41.0262 320.255C40.1622 320.687 39.1302 320.903 37.9302 320.903C36.0102 320.903 34.4742 320.431 33.3222 319.487C32.1862 318.543 31.5862 317.119 31.5222 315.215H35.5062C35.5222 315.919 35.7222 316.479 36.1062 316.895C36.4902 317.295 37.0502 317.495 37.7862 317.495C38.4102 317.495 38.8902 317.319 39.2262 316.967C39.5782 316.599 39.7542 316.119 39.7542 315.527C39.7542 314.759 39.5062 314.207 39.0102 313.871C38.5302 313.519 37.7542 313.343 36.6822 313.343H35.9142V310.007H36.6822C37.4982 310.007 38.1542 309.871 38.6502 309.599C39.1622 309.311 39.4182 308.807 39.4182 308.087C39.4182 307.511 39.2582 307.063 38.9382 306.743C38.6182 306.423 38.1782 306.263 37.6182 306.263C37.0102 306.263 36.5542 306.447 36.2502 306.815C35.9622 307.183 35.7942 307.639 35.7462 308.183H31.7382Z" fill="black"/>
<path d="M173.089 301.172C173.089 302.004 172.873 302.788 172.441 303.524C172.025 304.244 171.401 304.844 170.569 305.324C169.753 305.788 168.785 306.06 167.665 306.14V308.084H166.129V306.116C164.529 305.972 163.241 305.492 162.265 304.676C161.289 303.844 160.785 302.724 160.753 301.316H164.353C164.449 302.468 165.041 303.164 166.129 303.404V298.82C164.977 298.532 164.049 298.244 163.345 297.956C162.641 297.668 162.033 297.204 161.521 296.564C161.009 295.924 160.753 295.052 160.753 293.948C160.753 292.556 161.249 291.42 162.241 290.54C163.249 289.66 164.545 289.156 166.129 289.028V287.084H167.665V289.028C169.201 289.156 170.425 289.62 171.337 290.42C172.265 291.22 172.785 292.324 172.897 293.732H169.273C169.225 293.268 169.057 292.868 168.769 292.532C168.497 292.18 168.129 291.932 167.665 291.788V296.324C168.865 296.628 169.809 296.924 170.497 297.212C171.201 297.484 171.809 297.94 172.321 298.58C172.833 299.204 173.089 300.068 173.089 301.172ZM164.257 293.78C164.257 294.308 164.417 294.74 164.737 295.076C165.057 295.396 165.521 295.66 166.129 295.868V291.716C165.553 291.796 165.097 292.012 164.761 292.364C164.425 292.716 164.257 293.188 164.257 293.78ZM167.665 303.452C168.273 303.34 168.745 303.092 169.081 302.708C169.433 302.324 169.609 301.86 169.609 301.316C169.609 300.788 169.441 300.364 169.105 300.044C168.769 299.724 168.289 299.46 167.665 299.252V303.452ZM176.504 293.108C176.584 291.508 177.144 290.276 178.184 289.412C179.24 288.532 180.624 288.092 182.336 288.092C183.504 288.092 184.504 288.3 185.336 288.716C186.168 289.116 186.792 289.668 187.208 290.372C187.64 291.06 187.856 291.844 187.856 292.724C187.856 293.732 187.592 294.588 187.064 295.292C186.552 295.98 185.936 296.444 185.216 296.684V296.78C186.144 297.068 186.864 297.58 187.376 298.316C187.904 299.052 188.168 299.996 188.168 301.148C188.168 302.108 187.944 302.964 187.496 303.716C187.064 304.468 186.416 305.06 185.552 305.492C184.704 305.908 183.68 306.116 182.48 306.116C180.672 306.116 179.2 305.66 178.064 304.748C176.928 303.836 176.328 302.492 176.264 300.716H179.528C179.56 301.5 179.824 302.132 180.32 302.612C180.832 303.076 181.528 303.308 182.408 303.308C183.224 303.308 183.848 303.084 184.28 302.636C184.728 302.172 184.952 301.58 184.952 300.86C184.952 299.9 184.648 299.212 184.04 298.796C183.432 298.38 182.488 298.172 181.208 298.172H180.512V295.412H181.208C183.48 295.412 184.616 294.652 184.616 293.132C184.616 292.444 184.408 291.908 183.992 291.524C183.592 291.14 183.008 290.948 182.24 290.948C181.488 290.948 180.904 291.156 180.488 291.572C180.088 291.972 179.856 292.484 179.792 293.108H176.504ZM209.471 289.244V305.996H206.111V295.1L201.623 305.996H199.079L194.567 295.1V305.996H191.207V289.244H195.023L200.351 301.7L205.679 289.244H209.471Z" fill="black"/>
<line x1="84.7752" y1="303.959" x2="147.176" y2="303.959" stroke="black" stroke-width="3"/>
<rect x="42.3525" y="217.214" width="27.8186" height="48.3643" rx="3.5" transform="rotate(21.3961 42.3525 217.214)" fill="white" stroke="black" stroke-width="3"/>
<rect x="42.3525" y="217.214" width="27.8989" height="10.6437" rx="3.5" transform="rotate(21.3961 42.3525 217.214)" fill="#EF476F" stroke="black" stroke-width="3"/>
<path d="M32.6294 256.919C36.3604 255.752 39.3149 254.757 41.4929 253.935C43.6797 253.091 45.6314 252.09 47.348 250.932C49.0957 249.761 50.2716 248.405 50.8757 246.863C51.4448 245.41 51.5338 244.131 51.1427 243.024C50.7827 241.903 49.8206 241.036 48.2563 240.423C46.7368 239.828 45.3642 239.844 44.1386 240.473C42.9441 241.087 42.0025 242.175 41.3138 243.735L38.3641 242.579C39.4341 240.111 40.9512 238.476 42.9155 237.673C44.8797 236.871 46.9903 236.911 49.2472 237.796C51.5489 238.698 53.1205 240.048 53.9622 241.847C54.8262 243.655 54.8205 245.676 53.9449 247.911C53.2182 249.765 51.9504 251.357 50.1414 252.684C48.3635 253.998 46.508 255.05 44.5749 255.839C42.6505 256.606 40.2475 257.443 37.3659 258.35L48.8964 262.868L47.8983 265.415L31.7757 259.098L32.6294 256.919Z" fill="black"/>
<path d="M32.6294 256.919L31.7336 254.056L30.3609 254.486L29.8361 255.825L32.6294 256.919ZM41.4929 253.935L42.5523 256.742L42.563 256.738L42.5736 256.734L41.4929 253.935ZM47.348 250.932L45.6779 248.44L45.6707 248.445L47.348 250.932ZM51.1427 243.024L48.2865 243.941L48.2997 243.982L48.3141 244.023L51.1427 243.024ZM44.1386 240.473L42.7703 237.803L42.7661 237.805L44.1386 240.473ZM41.3138 243.735L40.2193 246.528L42.8971 247.577L44.0583 244.946L41.3138 243.735ZM38.3641 242.579L35.6117 241.386L34.3749 244.238L37.2697 245.372L38.3641 242.579ZM42.9155 237.673L44.0504 240.45L44.0504 240.45L42.9155 237.673ZM53.9622 241.847L51.2449 243.118L51.2501 243.13L51.2555 243.141L53.9622 241.847ZM50.1414 252.684L48.3665 250.265L48.3583 250.271L50.1414 252.684ZM44.5749 255.839L45.6854 258.626L45.6971 258.621L45.7087 258.616L44.5749 255.839ZM37.3659 258.35L36.465 255.488L28.3558 258.042L36.2715 261.143L37.3659 258.35ZM48.8964 262.868L51.6897 263.962L52.7841 261.169L49.9909 260.075L48.8964 262.868ZM47.8983 265.415L46.8039 268.208L49.5971 269.303L50.6916 266.51L47.8983 265.415ZM31.7757 259.098L28.9825 258.004L27.888 260.797L30.6813 261.891L31.7757 259.098ZM33.5252 259.782C37.2798 258.608 40.2964 257.593 42.5523 256.742L40.4335 251.128C38.3334 251.921 35.441 252.896 31.7336 254.056L33.5252 259.782ZM42.5736 256.734C44.9432 255.819 47.0994 254.718 49.0252 253.42L45.6707 248.445C44.1633 249.461 42.4162 250.363 40.4122 251.137L42.5736 256.734ZM49.018 253.424C51.1363 252.005 52.7881 250.205 53.6689 247.957L48.0825 245.768C47.7551 246.604 47.055 247.517 45.6779 248.44L49.018 253.424ZM53.6689 247.957C54.4134 246.057 54.6719 244.007 53.9713 242.024L48.3141 244.023C48.3957 244.254 48.4762 244.763 48.0825 245.768L53.6689 247.957ZM53.9989 242.106C53.2603 239.807 51.3806 238.425 49.3508 237.63L47.1619 243.217C47.7029 243.429 47.9967 243.63 48.1431 243.762C48.2712 243.877 48.2844 243.935 48.2865 243.941L53.9989 242.106ZM49.3508 237.63C47.193 236.785 44.9038 236.709 42.7703 237.803L45.5069 243.142C45.8247 242.979 46.2807 242.871 47.1619 243.217L49.3508 237.63ZM42.7661 237.805C40.8121 238.81 39.459 240.508 38.5692 242.523L44.0583 244.946C44.546 243.841 45.0761 243.364 45.5111 243.14L42.7661 237.805ZM42.4082 240.942L39.4586 239.786L37.2697 245.372L40.2193 246.528L42.4082 240.942ZM41.1165 243.773C41.9622 241.822 42.9921 240.883 44.0504 240.45L41.7805 234.896C38.9104 236.069 36.906 238.401 35.6117 241.386L41.1165 243.773ZM44.0504 240.45C45.1987 239.981 46.5033 239.943 48.1528 240.589L50.3417 235.003C47.4773 233.88 44.5607 233.76 41.7805 234.896L44.0504 240.45ZM48.1528 240.589C49.9222 241.282 50.8041 242.176 51.2449 243.118L56.6795 240.576C55.4369 237.92 53.1755 236.113 50.3417 235.003L48.1528 240.589ZM51.2555 243.141C51.6911 244.052 51.789 245.19 51.1517 246.816L56.7382 249.005C57.8519 246.163 57.9614 243.258 56.6689 240.553L51.2555 243.141ZM51.1517 246.816C50.6576 248.077 49.7771 249.23 48.3665 250.265L51.9163 255.103C54.1237 253.483 55.7788 251.454 56.7382 249.005L51.1517 246.816ZM48.3583 250.271C46.7691 251.446 45.1303 252.372 43.441 253.061L45.7087 258.616C47.8857 257.728 49.9579 256.55 51.9245 255.097L48.3583 250.271ZM43.4644 253.052C41.6322 253.782 39.3047 254.594 36.465 255.488L38.2669 261.211C41.1904 260.291 43.6688 259.429 45.6854 258.626L43.4644 253.052ZM36.2715 261.143L47.802 265.661L49.9909 260.075L38.4604 255.557L36.2715 261.143ZM46.1032 261.773L45.1051 264.321L50.6916 266.51L51.6897 263.962L46.1032 261.773ZM48.9928 262.622L32.8702 256.305L30.6813 261.891L46.8039 268.208L48.9928 262.622ZM34.569 260.193L35.4226 258.014L29.8361 255.825L28.9825 258.004L34.569 260.193Z" fill="black"/>
<rect x="24.2647" y="220.783" width="27.8186" height="48.3643" rx="3.5" fill="white" stroke="black" stroke-width="3"/>
<rect x="24.2647" y="220.783" width="27.8989" height="10.6437" rx="3.5" fill="#EF476F" stroke="black" stroke-width="3"/>
<path d="M32.2947 256.639C32.8387 256.207 33.0867 256.007 33.0387 256.039C34.6067 254.743 35.8387 253.679 36.7347 252.847C37.6467 252.015 38.4147 251.143 39.0387 250.231C39.6627 249.319 39.9747 248.431 39.9747 247.567C39.9747 246.911 39.8227 246.399 39.5187 246.031C39.2147 245.663 38.7587 245.479 38.1507 245.479C37.5427 245.479 37.0627 245.711 36.7107 246.175C36.3747 246.623 36.2067 247.263 36.2067 248.095H32.2467C32.2787 246.735 32.5667 245.599 33.1107 244.687C33.6707 243.775 34.3987 243.103 35.2947 242.671C36.2067 242.239 37.2147 242.023 38.3187 242.023C40.2227 242.023 41.6547 242.511 42.6147 243.487C43.5907 244.463 44.0787 245.735 44.0787 247.303C44.0787 249.015 43.4947 250.607 42.3267 252.079C41.1587 253.535 39.6707 254.959 37.8627 256.351H44.3427V259.687H32.2947V256.639Z" fill="black"/>
<line x1="80.9509" y1="243.465" x2="145.156" y2="243.465" stroke="black" stroke-width="3"/>
<path d="M173.949 239.339C173.949 240.171 173.733 240.955 173.301 241.691C172.885 242.411 172.261 243.011 171.429 243.491C170.613 243.955 169.645 244.227 168.525 244.307V246.251H166.989V244.283C165.389 244.139 164.101 243.659 163.125 242.843C162.149 242.011 161.645 240.891 161.613 239.483H165.213C165.309 240.635 165.901 241.331 166.989 241.571V236.987C165.837 236.699 164.909 236.411 164.205 236.123C163.501 235.835 162.893 235.371 162.381 234.731C161.869 234.091 161.613 233.219 161.613 232.115C161.613 230.723 162.109 229.587 163.101 228.707C164.109 227.827 165.405 227.323 166.989 227.195V225.251H168.525V227.195C170.061 227.323 171.285 227.787 172.197 228.587C173.125 229.387 173.645 230.491 173.757 231.899H170.133C170.085 231.435 169.917 231.035 169.629 230.699C169.357 230.347 168.989 230.099 168.525 229.955V234.491C169.725 234.795 170.669 235.091 171.357 235.379C172.061 235.651 172.669 236.107 173.181 236.747C173.693 237.371 173.949 238.235 173.949 239.339ZM165.117 231.947C165.117 232.475 165.277 232.907 165.597 233.243C165.917 233.563 166.381 233.827 166.989 234.035V229.883C166.413 229.963 165.957 230.179 165.621 230.531C165.285 230.883 165.117 231.355 165.117 231.947ZM168.525 241.619C169.133 241.507 169.605 241.259 169.941 240.875C170.293 240.491 170.469 240.027 170.469 239.483C170.469 238.955 170.301 238.531 169.965 238.211C169.629 237.891 169.149 237.627 168.525 237.419V241.619ZM178.372 240.371C179.908 239.091 181.132 238.027 182.044 237.179C182.956 236.315 183.716 235.419 184.324 234.491C184.932 233.563 185.236 232.651 185.236 231.755C185.236 230.939 185.044 230.299 184.66 229.835C184.276 229.371 183.684 229.139 182.884 229.139C182.084 229.139 181.468 229.411 181.036 229.955C180.604 230.483 180.38 231.211 180.364 232.139H177.1C177.164 230.219 177.732 228.763 178.804 227.771C179.892 226.779 181.268 226.283 182.932 226.283C184.756 226.283 186.156 226.771 187.132 227.747C188.108 228.707 188.596 229.979 188.596 231.563C188.596 232.811 188.26 234.003 187.588 235.139C186.916 236.275 186.148 237.267 185.284 238.115C184.42 238.947 183.292 239.955 181.9 241.139H188.98V243.923H177.124V241.427L178.372 240.371ZM209.746 227.411V244.163H206.386V233.267L201.898 244.163H199.354L194.842 233.267V244.163H191.482V227.411H195.298L200.626 239.867L205.954 227.411H209.746Z" fill="black"/>
<path d="M181.229 182.167C181.229 182.999 181.013 183.783 180.581 184.519C180.165 185.239 179.541 185.839 178.709 186.319C177.893 186.783 176.925 187.055 175.805 187.135V189.079H174.269V187.111C172.669 186.967 171.381 186.487 170.405 185.671C169.429 184.839 168.925 183.719 168.893 182.311H172.493C172.589 183.463 173.181 184.159 174.269 184.399V179.815C173.117 179.527 172.189 179.239 171.485 178.951C170.781 178.663 170.173 178.199 169.661 177.559C169.149 176.919 168.893 176.047 168.893 174.943C168.893 173.551 169.389 172.415 170.381 171.535C171.389 170.655 172.685 170.151 174.269 170.023V168.079H175.805V170.023C177.341 170.151 178.565 170.615 179.477 171.415C180.405 172.215 180.925 173.319 181.037 174.727H177.413C177.365 174.263 177.197 173.863 176.909 173.527C176.637 173.175 176.269 172.927 175.805 172.783V177.319C177.005 177.623 177.949 177.919 178.637 178.207C179.341 178.479 179.949 178.935 180.461 179.575C180.973 180.199 181.229 181.063 181.229 182.167ZM172.397 174.775C172.397 175.303 172.557 175.735 172.877 176.071C173.197 176.391 173.661 176.655 174.269 176.863V172.711C173.693 172.791 173.237 173.007 172.901 173.359C172.565 173.711 172.397 174.183 172.397 174.775ZM175.805 184.447C176.413 184.335 176.885 184.087 177.221 183.703C177.573 183.319 177.749 182.855 177.749 182.311C177.749 181.783 177.581 181.359 177.245 181.039C176.909 180.719 176.429 180.455 175.805 180.247V184.447ZM184.188 172.591V169.495H189.972V186.991H186.516V172.591H184.188ZM211.939 170.239V186.991H208.579V176.095L204.091 186.991H201.547L197.035 176.095V186.991H193.675V170.239H197.491L202.819 182.695L208.147 170.239H211.939Z" fill="black"/>
<line x1="83.4471" y1="176.559" x2="150.407" y2="176.559" stroke="black" stroke-width="3"/>
<rect x="24.2647" y="152.775" width="29.1408" height="50.5679" rx="3.5" fill="white" stroke="black" stroke-width="3"/>
<rect x="24.2647" y="152.775" width="29.2245" height="11.229" rx="3.5" fill="#EF476F" stroke="black" stroke-width="3"/>
<path d="M35.3933 179.104V176.008H41.1773V193.504H37.7213V179.104H35.3933Z" fill="black"/>
</svg>
